<?xml version="1.0" standalone="no"?>
<!DOCTYPE svg PUBLIC "-//W3C//DTD SVG 1.1//EN"
"http://www.w3.org/Graphics/SVG/1.1/DTD/svg11.dtd">

<svg width="575" height="465" view_box="0 0 575 465"
xmlns="http://www.w3.org/2000/svg"
xmlns:link="http://www.w3.org/1999/xlink">\n\n<desc>Généré par Mocodo 2.3.7 le Fri, 19 Mar 2021 09:33:11</desc>

<rect id="frame" x="0" y="0" width="575" height="465" fill="#ffffbf" stroke="none" stroke-width="0"/>

<!-- Association REPRESENT -->
<line x1="81" y1="68" x2="234" y2="68" stroke="#66bd63" stroke-width="2"/>
<text x="112" y="85.0" fill="#d73027" font-family="Verdana" font-size="12">1,1</text>
<line x1="234" y1="177" x2="234" y2="68" stroke="#66bd63" stroke-width="2"/>
<text x="239.0" y="118" fill="#d73027" font-family="Verdana" font-size="12">1,N</text>
<g id="association-REPRESENT">
	<path d="M 263 43 a 14 14 90 0 1 14 14 V 68 h -86 V 57 a 14 14 90 0 1 14 -14" fill="#a6d96a" stroke="#a6d96a" stroke-width="0"/>
	<path d="M 277 68.0 v 11 a 14 14 90 0 1 -14 14 H 205 a 14 14 90 0 1 -14 -14 V 68.0 H 86" fill="#d9ef8b" stroke="#d9ef8b" stroke-width="0"/>
	<rect x="191" y="43" width="86" height="50" fill="none" rx="14" stroke="#66bd63" stroke-width="2"/>
	<line x1="191" y1="68" x2="277" y2="68" stroke="#66bd63" stroke-width="1"/>
	<text x="198" y="60.7" fill="#000000" font-family="Verdana" font-size="12">REPRESENT</text>
</g>

<!-- Association ATTRIBUTED_TO -->
<line x1="81" y1="422" x2="234" y2="422" stroke="#66bd63" stroke-width="2"/>
<text x="148" y="439.0" fill="#d73027" font-family="Verdana" font-size="12">1,N</text>
<line x1="372" y1="295" x2="234" y2="422" stroke="#66bd63" stroke-width="2"/>
<text x="280" y="354.395397222" fill="#d73027" font-family="Verdana" font-size="12">1,1</text>
<g id="association-ATTRIBUTED_TO">
	<path d="M 279 397 a 14 14 90 0 1 14 14 V 422 h -118 V 411 a 14 14 90 0 1 14 -14" fill="#a6d96a" stroke="#a6d96a" stroke-width="0"/>
	<path d="M 293 422.0 v 11 a 14 14 90 0 1 -14 14 H 189 a 14 14 90 0 1 -14 -14 V 422.0 H 118" fill="#d9ef8b" stroke="#d9ef8b" stroke-width="0"/>
	<rect x="175" y="397" width="118" height="50" fill="none" rx="14" stroke="#66bd63" stroke-width="2"/>
	<line x1="175" y1="422" x2="293" y2="422" stroke="#66bd63" stroke-width="1"/>
	<text x="182" y="414.7" fill="#000000" font-family="Verdana" font-size="12">ATTRIBUTED_TO</text>
</g>

<!-- Association ATTACHED -->
<line x1="234" y1="177" x2="81" y2="177" stroke="#66bd63" stroke-width="2"/>
<text x="172" y="194.0" fill="#d73027" font-family="Verdana" font-size="12">1,N</text>
<line x1="81" y1="295" x2="81" y2="177" stroke="#66bd63" stroke-width="2"/>
<text x="86.0" y="253" fill="#d73027" font-family="Verdana" font-size="12">1,1</text>
<g id="association-ATTACHED">
	<path d="M 107 152 a 14 14 90 0 1 14 14 V 177 h -80 V 166 a 14 14 90 0 1 14 -14" fill="#a6d96a" stroke="#a6d96a" stroke-width="0"/>
	<path d="M 121 177.0 v 11 a 14 14 90 0 1 -14 14 H 55 a 14 14 90 0 1 -14 -14 V 177.0 H 80" fill="#d9ef8b" stroke="#d9ef8b" stroke-width="0"/>
	<rect x="41" y="152" width="80" height="50" fill="none" rx="14" stroke="#66bd63" stroke-width="2"/>
	<line x1="41" y1="177" x2="121" y2="177" stroke="#66bd63" stroke-width="1"/>
	<text x="48" y="169.7" fill="#000000" font-family="Verdana" font-size="12">ATTACHED</text>
</g>

<!-- Association LIAISON -->
<line x1="81" y1="295" x2="234" y2="295" stroke="#66bd63" stroke-width="2"/>
<text x="158" y="312.0" fill="#d73027" font-family="Verdana" font-size="12">0,N</text>
<line x1="372" y1="295" x2="234" y2="295" stroke="#66bd63" stroke-width="2"/>
<text x="279" y="287.0" fill="#d73027" font-family="Verdana" font-size="12">0,N</text>
<g id="association-LIAISON">
	<path d="M 254 270 a 14 14 90 0 1 14 14 V 295 h -68 V 284 a 14 14 90 0 1 14 -14" fill="#a6d96a" stroke="#a6d96a" stroke-width="0"/>
	<path d="M 268 295.0 v 11 a 14 14 90 0 1 -14 14 H 214 a 14 14 90 0 1 -14 -14 V 295.0 H 68" fill="#d9ef8b" stroke="#d9ef8b" stroke-width="0"/>
	<rect x="200" y="270" width="68" height="50" fill="none" rx="14" stroke="#66bd63" stroke-width="2"/>
	<line x1="200" y1="295" x2="268" y2="295" stroke="#66bd63" stroke-width="1"/>
	<text x="207" y="287.7" fill="#000000" font-family="Verdana" font-size="12">LIAISON</text>
</g>

<!-- Association ASIGN -->
<line x1="372" y1="68" x2="518" y2="68" stroke="#66bd63" stroke-width="2"/>
<text x="412" y="85.0" fill="#d73027" font-family="Verdana" font-size="12">0,N</text>
<line x1="518" y1="177" x2="518" y2="68" stroke="#66bd63" stroke-width="2"/>
<text x="523.0" y="118" fill="#d73027" font-family="Verdana" font-size="12">1,1</text>
<g id="association-ASIGN">
	<path d="M 532 43 a 14 14 90 0 1 14 14 V 68 h -56 V 57 a 14 14 90 0 1 14 -14" fill="#a6d96a" stroke="#a6d96a" stroke-width="0"/>
	<path d="M 546 68.0 v 11 a 14 14 90 0 1 -14 14 H 504 a 14 14 90 0 1 -14 -14 V 68.0 H 56" fill="#d9ef8b" stroke="#d9ef8b" stroke-width="0"/>
	<rect x="490" y="43" width="56" height="50" fill="none" rx="14" stroke="#66bd63" stroke-width="2"/>
	<line x1="490" y1="68" x2="546" y2="68" stroke="#66bd63" stroke-width="1"/>
	<text x="497" y="60.7" fill="#000000" font-family="Verdana" font-size="12">ASIGN</text>
</g>

<!-- Association BELONG_TO -->
<line x1="518" y1="177" x2="372" y2="177" stroke="#66bd63" stroke-width="2"/>
<text x="462" y="194.0" fill="#d73027" font-family="Verdana" font-size="12">1,1</text>
<line x1="372" y1="295" x2="372" y2="177" stroke="#66bd63" stroke-width="2"/>
<text x="377.0" y="219" fill="#d73027" font-family="Verdana" font-size="12">0,N</text>
<g id="association-BELONG_TO">
	<path d="M 403 152 a 14 14 90 0 1 14 14 V 177 h -90 V 166 a 14 14 90 0 1 14 -14" fill="#a6d96a" stroke="#a6d96a" stroke-width="0"/>
	<path d="M 417 177.0 v 11 a 14 14 90 0 1 -14 14 H 341 a 14 14 90 0 1 -14 -14 V 177.0 H 90" fill="#d9ef8b" stroke="#d9ef8b" stroke-width="0"/>
	<rect x="327" y="152" width="90" height="50" fill="none" rx="14" stroke="#66bd63" stroke-width="2"/>
	<line x1="327" y1="177" x2="417" y2="177" stroke="#66bd63" stroke-width="1"/>
	<text x="334" y="169.7" fill="#000000" font-family="Verdana" font-size="12">BELONG_TO</text>
</g>

<!-- Association LOCATED_AT -->
<line x1="372" y1="295" x2="518" y2="295" stroke="#66bd63" stroke-width="2"/>
<text x="443" y="312.0" fill="#d73027" font-family="Verdana" font-size="12">1,1</text>
<line x1="372" y1="422" x2="518" y2="295" stroke="#66bd63" stroke-width="2"/>
<text x="390.463329592" y="380" fill="#d73027" font-family="Verdana" font-size="12">1,N</text>
<g id="association-LOCATED_AT">
	<path d="M 552 270 a 14 14 90 0 1 14 14 V 295 h -96 V 284 a 14 14 90 0 1 14 -14" fill="#a6d96a" stroke="#a6d96a" stroke-width="0"/>
	<path d="M 566 295.0 v 11 a 14 14 90 0 1 -14 14 H 484 a 14 14 90 0 1 -14 -14 V 295.0 H 96" fill="#d9ef8b" stroke="#d9ef8b" stroke-width="0"/>
	<rect x="470" y="270" width="96" height="50" fill="none" rx="14" stroke="#66bd63" stroke-width="2"/>
	<line x1="470" y1="295" x2="566" y2="295" stroke="#66bd63" stroke-width="1"/>
	<text x="477" y="287.7" fill="#000000" font-family="Verdana" font-size="12">LOCATED_AT</text>
</g>

<!-- Entity PRODUCT -->
<g id="entity-PRODUCT">
	<g id="frame-PRODUCT">
		<rect x="199" y="126" width="70" height="25" fill="#fdae61" stroke="#fdae61" stroke-width="0"/>
		<rect x="199" y="151.0" width="70" height="77" fill="#fee08b" stroke="#fee08b" stroke-width="0"/>
		<rect x="199" y="126" width="70" height="102" fill="none" stroke="#f46d43" stroke-width="2"/>
		<line x1="199" y1="151" x2="269" y2="151" stroke="#f46d43" stroke-width="1"/>
	</g>
	<text x="204" y="143.7" fill="#000000" font-family="Verdana" font-size="12">PRODUCT</text>
	<text x="204" y="168.7" fill="#000000" font-family="Verdana" font-size="12">name</text>
	<line x1="204" y1="171" x2="239" y2="171" stroke="#000000" stroke-width="1"/>
	<text x="204" y="185.8" fill="#000000" font-family="Verdana" font-size="12">content</text>
	<text x="204" y="202.8" fill="#000000" font-family="Verdana" font-size="12">prix</text>
	<text x="204" y="219.8" fill="#000000" font-family="Verdana" font-size="12">status</text>
</g>

<!-- Entity PRODUCT_CATEGORY -->
<g id="entity-PRODUCT_CATEGORY">
	<g id="frame-PRODUCT_CATEGORY">
		<rect x="9" y="261" width="144" height="25" fill="#fdae61" stroke="#fdae61" stroke-width="0"/>
		<rect x="9" y="286.0" width="144" height="43" fill="#fee08b" stroke="#fee08b" stroke-width="0"/>
		<rect x="9" y="261" width="144" height="68" fill="none" stroke="#f46d43" stroke-width="2"/>
		<line x1="9" y1="286" x2="153" y2="286" stroke="#f46d43" stroke-width="1"/>
	</g>
	<text x="14" y="278.7" fill="#000000" font-family="Verdana" font-size="12">PRODUCT_CATEGORY</text>
	<text x="14" y="303.8" fill="#000000" font-family="Verdana" font-size="12">name</text>
	<line x1="14" y1="306" x2="49" y2="306" stroke="#000000" stroke-width="1"/>
	<text x="14" y="320.8" fill="#000000" font-family="Verdana" font-size="12">pictogram</text>
</g>

<!-- Entity IMAGE -->
<g id="entity-IMAGE">
	<g id="frame-IMAGE">
		<rect x="55" y="34" width="52" height="25" fill="#fdae61" stroke="#fdae61" stroke-width="0"/>
		<rect x="55" y="59.0" width="52" height="43" fill="#fee08b" stroke="#fee08b" stroke-width="0"/>
		<rect x="55" y="34" width="52" height="68" fill="none" stroke="#f46d43" stroke-width="2"/>
		<line x1="55" y1="59" x2="107" y2="59" stroke="#f46d43" stroke-width="1"/>
	</g>
	<text x="60" y="51.7" fill="#000000" font-family="Verdana" font-size="12">IMAGE</text>
	<text x="60" y="76.8" fill="#000000" font-family="Verdana" font-size="12">alt</text>
	<line x1="60" y1="79" x2="76" y2="79" stroke="#000000" stroke-width="1"/>
	<text x="60" y="93.8" fill="#000000" font-family="Verdana" font-size="12">url</text>
</g>

<!-- Entity PLACE -->
<g id="entity-PLACE">
	<g id="frame-PLACE">
		<rect x="306" y="227" width="132" height="25" fill="#fdae61" stroke="#fdae61" stroke-width="0"/>
		<rect x="306" y="252.0" width="132" height="111" fill="#fee08b" stroke="#fee08b" stroke-width="0"/>
		<rect x="306" y="227" width="132" height="136" fill="none" stroke="#f46d43" stroke-width="2"/>
		<line x1="306" y1="252" x2="438" y2="252" stroke="#f46d43" stroke-width="1"/>
	</g>
	<text x="352" y="244.7" fill="#000000" font-family="Verdana" font-size="12">PLACE</text>
	<text x="311" y="269.7" fill="#000000" font-family="Verdana" font-size="12">name</text>
	<line x1="311" y1="272" x2="346" y2="272" stroke="#000000" stroke-width="1"/>
	<text x="311" y="286.7" fill="#000000" font-family="Verdana" font-size="12">adress</text>
	<text x="311" y="303.8" fill="#000000" font-family="Verdana" font-size="12">city</text>
	<text x="311" y="320.8" fill="#000000" font-family="Verdana" font-size="12">adress_complement</text>
	<text x="311" y="337.8" fill="#000000" font-family="Verdana" font-size="12">logo</text>
	<text x="311" y="354.8" fill="#000000" font-family="Verdana" font-size="12">status</text>
</g>

<!-- Entity USER -->
<g id="entity-USER">
	<g id="frame-USER">
		<rect x="337" y="9" width="70" height="25" fill="#fdae61" stroke="#fdae61" stroke-width="0"/>
		<rect x="337" y="34.0" width="70" height="93" fill="#fee08b" stroke="#fee08b" stroke-width="0"/>
		<rect x="337" y="9" width="70" height="118" fill="none" stroke="#f46d43" stroke-width="2"/>
		<line x1="337" y1="34" x2="407" y2="34" stroke="#f46d43" stroke-width="1"/>
	</g>
	<text x="355" y="26.7" fill="#000000" font-family="Verdana" font-size="12">USER</text>
	<text x="342" y="51.7" fill="#000000" font-family="Verdana" font-size="12">nickname</text>
	<line x1="342" y1="54" x2="401" y2="54" stroke="#000000" stroke-width="1"/>
	<text x="342" y="68.8" fill="#000000" font-family="Verdana" font-size="12">email</text>
	<text x="342" y="85.8" fill="#000000" font-family="Verdana" font-size="12">roles</text>
	<text x="342" y="102.8" fill="#000000" font-family="Verdana" font-size="12">password</text>
	<text x="342" y="119.8" fill="#000000" font-family="Verdana" font-size="12">status</text>
</g>

<!-- Entity DEPARTMENT -->
<g id="entity-DEPARTMENT">
	<g id="frame-DEPARTMENT">
		<rect x="325" y="388" width="94" height="25" fill="#fdae61" stroke="#fdae61" stroke-width="0"/>
		<rect x="325" y="413.0" width="94" height="43" fill="#fee08b" stroke="#fee08b" stroke-width="0"/>
		<rect x="325" y="388" width="94" height="68" fill="none" stroke="#f46d43" stroke-width="2"/>
		<line x1="325" y1="413" x2="419" y2="413" stroke="#f46d43" stroke-width="1"/>
	</g>
	<text x="330" y="405.7" fill="#000000" font-family="Verdana" font-size="12">DEPARTMENT</text>
	<text x="330" y="430.8" fill="#000000" font-family="Verdana" font-size="12">name</text>
	<line x1="330" y1="433" x2="365" y2="433" stroke="#000000" stroke-width="1"/>
	<text x="330" y="447.8" fill="#000000" font-family="Verdana" font-size="12">postcode</text>
</g>

<!-- Entity PLACE_CATEGORY -->
<g id="entity-PLACE_CATEGORY">
	<g id="frame-PLACE_CATEGORY">
		<rect x="19" y="388" width="124" height="25" fill="#fdae61" stroke="#fdae61" stroke-width="0"/>
		<rect x="19" y="413.0" width="124" height="43" fill="#fee08b" stroke="#fee08b" stroke-width="0"/>
		<rect x="19" y="388" width="124" height="68" fill="none" stroke="#f46d43" stroke-width="2"/>
		<line x1="19" y1="413" x2="143" y2="413" stroke="#f46d43" stroke-width="1"/>
	</g>
	<text x="24" y="405.7" fill="#000000" font-family="Verdana" font-size="12">PLACE_CATEGORY</text>
	<text x="24" y="430.8" fill="#000000" font-family="Verdana" font-size="12">name</text>
	<line x1="24" y1="433" x2="59" y2="433" stroke="#000000" stroke-width="1"/>
	<text x="24" y="447.8" fill="#000000" font-family="Verdana" font-size="12">pictogram</text>
</g>

<!-- Entity REVIEW -->
<g id="entity-REVIEW">
	<g id="frame-REVIEW">
		<rect x="488" y="126" width="60" height="25" fill="#fdae61" stroke="#fdae61" stroke-width="0"/>
		<rect x="488" y="151.0" width="60" height="77" fill="#fee08b" stroke="#fee08b" stroke-width="0"/>
		<rect x="488" y="126" width="60" height="102" fill="none" stroke="#f46d43" stroke-width="2"/>
		<line x1="488" y1="151" x2="548" y2="151" stroke="#f46d43" stroke-width="1"/>
	</g>
	<text x="493" y="143.7" fill="#000000" font-family="Verdana" font-size="12">REVIEW</text>
	<text x="493" y="168.7" fill="#000000" font-family="Verdana" font-size="12">content</text>
	<line x1="493" y1="171" x2="539" y2="171" stroke="#000000" stroke-width="1"/>
	<text x="493" y="185.8" fill="#000000" font-family="Verdana" font-size="12">note</text>
	<text x="493" y="202.8" fill="#000000" font-family="Verdana" font-size="12">rate</text>
	<text x="493" y="219.8" fill="#000000" font-family="Verdana" font-size="12">status</text>
</g>
</svg>